<?xml version="1.0" encoding="utf-8"?>
<!-- Generator: Adobe Illustrator 15.1.0, SVG Export Plug-In . SVG Version: 6.00 Build 0)  -->
<!DOCTYPE svg PUBLIC "-//W3C//DTD SVG 1.1//EN" "http://www.w3.org/Graphics/SVG/1.1/DTD/svg11.dtd">
<svg version="1.1" id="Layer_1_copy_13" xmlns="http://www.w3.org/2000/svg" xmlns:xlink="http://www.w3.org/1999/xlink" x="0px"
	 y="0px" width="818px" height="818px" viewBox="0 0 818 818" enable-background="new 0 0 818 818" xml:space="preserve">
<path d="M436.252,466.356l1.847,0.14l9.925,5.374v9.847l-9.925-5.374l-26.823-2.024l-26.825,2.024l-9.923,5.374v-9.847l9.923-5.374
	l1.846-0.14v-2.723l-19.708,1.176c4.56,10.618,9.801,21.294,15.564,32.043l0.292-8.341l28.679-2.949l28.679,2.949l11.467,327.786
	c2.664-0.242,5.32-0.513,7.97-0.806l-0.25-7.145c0.04-1.124,0.069-2.246,0.091-3.368l15.108-0.49
	c-0.036-1.048-0.072-2.104-0.11-3.165l-0.02-0.537l-0.078-0.533c-0.704-4.879-1.578-9.947-2.595-15.146l-12.735,2.494
	c-0.17-2.485-0.384-4.967-0.647-7.444l-0.231-6.616l10.604-2.469c-1.364-5.872-2.876-11.838-4.5-17.812l-6.749,1.839l-0.51-14.551
	l3.327-1.003c-1.216-4.045-2.487-8.043-3.782-12.007l-5.566-159.12c11.878,16.549,23.822,33.76,35.199,52.062
	c11.134,17.95,21.704,36.996,30.757,57.435c9.05,20.413,16.541,42.271,21.348,65.17c3.704,17.513,5.776,35.602,6.106,53.73
	c139.322-46.775,245.146-166.521,272.062-313.825l-379.815-19.672V466.356z M312.219,508.286
	c-6.053-12.647-11.606-25.716-16.312-39.258L11.985,485.974C45.39,661.379,190.814,797.07,370.995,815.787l6.806-194.544
	c-14.396-23.509-29.402-46.977-43.531-71.472C326.527,536.331,319.057,522.568,312.219,508.286z M577.229,130.359
	c-20.168,7.502-40.473,17.178-60.313,28.458c-8.017,4.565-15.96,9.414-23.808,14.516c5.3,1.924,10.625,3.85,16.006,5.775
	c14.881,5.327,30.081,10.639,45.637,15.865l5.605,1.855c1.824,0.59,3.659,1.159,5.503,1.718c3.69,1.114,7.416,2.174,11.182,3.164
	c7.527,1.988,15.202,3.721,22.997,5.177c15.586,2.909,31.677,4.713,47.927,5.066c16.225,0.34,32.681-0.755,48.37-3.924
	c7.829-1.583,15.451-3.692,22.528-6.399c7.071-2.697,13.598-6.012,18.986-9.816c0.203-0.143,0.392-0.29,0.592-0.434
	c-0.001,0.001-0.001,0.001-0.001,0.001c0.009-0.006,0.017-0.012,0.025-0.018c1.906-1.376,3.653-2.805,5.226-4.271
	c0.008-0.007,0.015-0.014,0.022-0.021c0.514-0.481,1.012-0.964,1.488-1.451c0.044-0.045,0.084-0.091,0.128-0.136
	c0.438-0.451,0.864-0.903,1.269-1.359c0.099-0.11,0.187-0.221,0.283-0.332c0.342-0.395,0.683-0.789,1.001-1.187
	c0.174-0.217,0.33-0.435,0.497-0.652c0.225-0.296,0.459-0.591,0.672-0.888c0.371-0.52,0.724-1.041,1.052-1.563
	c0.282-0.452,0.567-0.936,0.845-1.426c0.001-0.001,0.001-0.002,0.002-0.003c0.062-0.11,0.12-0.222,0.182-0.333
	c-13.419-19.538-28.486-37.855-45.009-54.743c-4.035-1.219-8.209-2.28-12.493-3.173c-17.909-3.729-37.603-4.619-57.862-3.153
	c-2.535,0.187-5.079,0.397-7.635,0.659l-1.761,0.182l-1.661,0.199c-1.117,0.142-2.25,0.303-3.396,0.48
	c-4.585,0.709-9.367,1.686-14.23,2.873C597.346,123.438,587.299,126.622,577.229,130.359z M230.446,91.938
	c6.246,0.787,12.541,1.785,18.872,3.005l4.646,0.93l4.543,0.944c3.036,0.639,6.083,1.308,9.142,2
	c24.476,5.523,49.676,12.641,75.578,20.956c24.308,7.794,49.246,16.643,74.984,26.042c0.078-0.061,0.155-0.123,0.233-0.184
	c21.365-16.639,43.531-31.215,66.248-43.968c22.742-12.728,45.998-23.674,70.132-32.469c12.082-4.381,24.388-8.221,37.194-11.247
	c6.407-1.51,12.947-2.811,19.721-3.805c1.475-0.216,2.966-0.41,4.464-0.595c-31.99-18.26-66.685-32.324-103.333-41.447
	C480.309,4.329,446.352,0.157,411.444,0.015C313.764,0.554,224.19,35.331,154.12,92.962c12.726-2.061,25.941-3.168,39.519-3.25
	C205.654,89.64,217.953,90.365,230.446,91.938z M783.862,234.726c-0.075,0.064-0.148,0.134-0.224,0.198
	c-1.661,1.434-3.345,2.801-5.045,4.11c-0.121,0.093-0.242,0.184-0.363,0.276c-0.683,0.522-1.368,1.032-2.057,1.535
	c-0.188,0.138-0.377,0.277-0.566,0.414c-0.807,0.583-1.615,1.155-2.428,1.711c-10.745,7.344-21.804,12.574-32.715,16.6
	c-10.927,4.012-21.753,6.8-32.405,8.816c-21.313,3.994-41.946,4.971-61.866,4.292c-19.921-0.716-39.139-3.181-57.634-6.921
	c-9.246-1.873-18.312-4.07-27.19-6.565c-4.438-1.244-8.829-2.569-13.174-3.958c-2.172-0.697-4.332-1.407-6.479-2.14l-6.248-2.181
	c-6.386-2.263-12.681-4.538-18.927-6.817c-4.42-1.258-8.94-2.297-13.607-3.343l0.346-1.541c-4.798-1.783-9.568-3.567-14.283-5.35
	c-1.082-0.409-2.142-0.816-3.219-1.225l-1.095,3.456c-2.456-0.779-4.939-1.658-7.44-2.676c-2.672-1.089-5.335-2.123-7.989-3.113
	l1.298-3.486c-1.979-0.76-3.96-1.521-5.92-2.279c-1.187-0.458-2.362-0.915-3.543-1.372c-2.369-0.917-4.724-1.833-7.074-2.748
	l-1.342,4.146c-5.053-1.638-10.087-3.192-15.11-4.737l1.599-5.204c-5.671-2.22-11.278-4.42-16.834-6.6l-2.073,6.387
	c-5.185-1.686-10.36-3.457-15.527-5.402l2.581-6.867c-1.328-0.52-2.666-1.043-3.988-1.559c-4.327-1.69-8.607-3.353-12.864-5
	l-2.686,6.419c-4.867-2.04-9.699-3.935-14.508-5.735l2.385-6.378c-5.185-1.979-10.337-3.936-15.425-5.84
	c-0.443-0.166-0.885-0.33-1.327-0.496l-2.327,6.737c-5.052-1.749-10.084-3.456-15.101-5.182l2.432-7.077
	c-1.626-0.59-3.257-1.185-4.875-1.767c-0.906-0.327-1.818-0.658-2.722-0.981c-3.149-1.126-6.28-2.23-9.395-3.317l-2.614,7.042
	c-2.007-0.746-4.01-1.506-6.013-2.286l0.064,0.025l-0.068-0.026l-0.004-0.001l-0.01-0.004c-2.88-1.123-5.753-2.149-8.621-3.095
	l2.235-6.783c-5.704-1.903-11.347-3.733-16.931-5.486l-1.871,7.542c-5.082-1.263-10.17-2.391-15.274-3.492l1.873-8.699
	c-5.847-1.716-11.627-3.341-17.345-4.871l-2.241,9.698c-3.059-0.708-6.125-1.453-9.199-2.262c-2.163-0.57-4.314-1.12-6.454-1.649
	l2.407-9.745l-4.038-0.964l-4.019-0.933c-3.186-0.713-6.357-1.351-9.515-1.93l-1.889,9.782c-2.463-0.477-4.913-0.919-7.352-1.326
	c-2.647-0.443-5.278-0.846-7.893-1.209l1.333-9.614c-6.049-0.702-12.021-1.162-17.897-1.39l-0.674,9.167
	c-1.343-0.099-2.68-0.187-4.011-0.264h-0.005c-3.828-0.222-7.608-0.354-11.332-0.396l0.097-8.554
	c-6.07,0.205-12.011,0.661-17.803,1.357l0.507,7.655c-5.184,0.344-10.231,0.872-15.126,1.579l-0.969-6.714
	c-2.654,0.542-5.273,1.13-7.848,1.775c-2.959,0.74-5.841,1.572-8.688,2.443l2.485,5.946c-3.894,1.624-8.016,4.058-12.179,6.88
	l-5.096-7.545c-5.766,2.389-11.232,5.057-16.382,7.961l7.018,9.962c-2.782,1.961-5.592,3.84-8.531,5.492l0.016-0.009l-0.028,0.016
	c-1.86,1.04-3.666,2.117-5.415,3.23l-6.423-10.115c-0.782,0.568-1.539,1.151-2.302,1.731c-0.576,0.438-1.161,0.873-1.728,1.319
	c-0.881,0.692-1.737,1.399-2.593,2.106c-0.408,0.339-0.824,0.675-1.229,1.019c-0.001,0.001-0.002,0.001-0.003,0.002
	c-1.617,2.333-3.206,4.688-4.775,7.056l5.922,6.729c-3.722,3.28-7.1,6.739-10.145,10.332l-0.006,0.007l-0.025,0.03l-4.293-3.646
	c-2.98,4.904-5.856,9.879-8.635,14.916l3.361,2.041c-0.104,0.171-0.208,0.344-0.312,0.517l0.039-0.066l-0.031,0.052
	c-1.438,2.411-2.767,4.832-3.977,7.257l-0.016,0.033l-0.014,0.026c-0.583,1.147-1.169,2.393-1.775,3.696l0.023-0.05
	c-0.228,0.498-0.45,0.998-0.667,1.499l-3.704-1.601c-2.548,5.055-4.999,10.167-7.341,15.339l6.797,1.002
	c-0.398,2.7-0.585,5.358-0.586,7.959c0,1.034,0.03,2.061,0.088,3.078l0.001,0.012c0.046,0.818,0.11,1.631,0.191,2.438l-9.979,1.01
	c0.628,6.186,2.108,12.047,4.171,17.463l9.375-3.574c0.501,1.317,1.044,2.607,1.621,3.867l0.006,0.014
	c1.376,3.004,2.949,5.839,4.663,8.504l-8.44,5.436c2.053,3.192,4.268,6.155,6.566,8.879c1.531,1.81,3.102,3.51,4.691,5.125
	l7.144-7.047c3.12,3.167,6.359,5.941,9.591,8.388c0.427,0.322,0.854,0.638,1.282,0.949l-5.899,8.127
	c4.326,3.15,8.59,5.74,12.653,7.912c0.922,0.49,1.824,0.943,2.724,1.393l4.482-8.977c4.905,2.454,9.432,4.279,13.568,5.738
	l-3.331,9.459c2.46,0.865,4.787,1.618,6.937,2.274c3.99,1.202,7.434,2.12,10.396,2.901l3.719-8.081
	c1.138,0.525,2.126,0.979,2.915,1.314c0.785,0.336,1.376,0.546,1.642,0.62l-0.01-0.003l-0.029-0.008
	c1.415,0.402,2.854,0.803,4.269,1.23c1.422,0.432,2.799,0.873,4.246,1.463c0.973,0.408,1.974,0.854,3.197,1.643h0.001l-4.976,7.64
	c0.553,0.658,0.821,1.342,0.883,2.05c0.101,1.171-0.348,2.381-1.889,3.645c-0.89,0.722-2.156,1.462-3.888,2.176l-0.521,1.013
	l-0.202,0.418l-0.045-0.021l-0.151-0.064c-0.267-0.111-0.764-0.293-1.392-0.494c-0.006-0.002-0.014-0.004-0.02-0.006
	c-0.714,0.229-1.468,0.455-2.303,0.673c-0.938,0.239-1.973,0.468-3.076,0.684c-0.426,0.084-0.872,0.164-1.323,0.242
	c-0.15,0.026-0.302,0.051-0.455,0.077c-0.416,0.069-0.843,0.135-1.281,0.199c-0.228,0.033-0.465,0.063-0.698,0.094
	c-0.485,0.065-0.977,0.128-1.487,0.186c-0.559,0.062-1.128,0.122-1.72,0.174c-0.295,0.026-0.606,0.046-0.91,0.07
	c-0.488,0.037-0.98,0.072-1.489,0.102c-0.31,0.018-0.626,0.034-0.944,0.048c-0.561,0.026-1.137,0.047-1.723,0.062
	c-0.284,0.008-0.563,0.017-0.853,0.022c-0.888,0.016-1.795,0.023-2.74,0.013c-8.283-0.128-18.904-1.264-31.716-5.456
	c-6.388-2.112-13.306-5.013-20.529-9.101c-7.218-4.083-14.752-9.363-22.114-16.285c-4.697-4.431-9.329-9.559-13.624-15.468
	C9.514,337.3,4.75,372.593,4.75,409c0,0.722,0.01,1.442,0.014,2.164l279.511,13.151c-0.474-2.79-0.917-5.587-1.293-8.397
	c-2.215-16.371-2.674-33.1-1.335-49.429c1.325-16.341,4.402-32.326,8.881-47.585c4.474-15.269,10.33-29.812,17.144-43.533
	c12.245-24.603,27.45-46.526,44.075-66.206c5.12-0.259,11.065,0.217,17.463,2.212c4.248,1.605,8.497,3.273,12.759,5.059
	c3.661,1.533,7.695,0.833,10.594-1.477c0.438,3.782,2.916,7.194,6.722,8.626c5.364,2.021,10.693,3.842,15.98,5.561
	c2.627,0.854,5.543,0.625,8.005-0.631c0.849-0.432,1.623-0.987,2.317-1.627c0.016,0.069,0.043,0.135,0.061,0.204
	c-6.302,6.189-12.405,12.598-18.24,19.254c-15.679,17.897-29.501,37.537-39.888,58.661c-10.389,21.105-17.217,43.68-18.99,66.822
	c-0.898,11.576-0.551,23.22,1.081,35.041c0.942,6.86,2.325,13.768,4.091,20.711l24.471,1.152v-4.006l6.537-3.431l19.556-20.627
	l2.176-0.297v-17.436c0-6.184,9.27-6.184,9.27,0v17.437l2.172,0.296l19.163,20.209l7.336,3.849v3.366l378.348-15.604
	c0.01-1.162,0.022-2.324,0.022-3.489C822.75,346.667,808.8,287.595,783.862,234.726z"/>
<linearGradient id="SVGID_1_" gradientUnits="userSpaceOnUse" x1="4.7637" y1="448.5693" x2="386.2959" y2="448.5693">
	<stop  offset="0" style="stop-color:#000000"/>
	<stop  offset="1" style="stop-color:#000000;stop-opacity:0.25"/>
</linearGradient>
<path fill="url(#SVGID_1_)" d="M378.171,433.693v-4.96l-24.471-1.152c1.273,5.009,2.74,10.038,4.413,15.083
	c2.432,7.355,5.292,14.737,8.475,22.146l19.708-1.176V429.43L378.171,433.693z M284.274,424.315L4.764,411.164
	c0.133,25.559,2.604,50.564,7.222,74.81l283.921-16.946c-0.607-1.745-1.203-3.497-1.781-5.258
	C289.934,451,286.562,437.791,284.274,424.315z"/>
</svg>
